# xmcd CD database file
#
# Track frame offsets:
#	150
#	65317
#	87592
#
# Disc length: 1504 seconds
#
# Revision: 2
# Processed by: cddbd v1.5.2PL0 Copyright (c) Steve Scherf et al.
# Submitted via: CDex 1.51
#
DISCID=2005de03
DTITLE=Modest Mouse and 764-Hero - Whenever You See Fit EP
DYEAR=1998
DGENRE=Rock
TTITLE0=Whenever You See Fit (Original Version)
TTITLE1=Whenever You See Fit (DJ Dynomite D Mix)
TTITLE2=Whenever You See Fit ( Sientific American Mix)
EXTD=YEAR: 1998
EXTT0=
EXTT1=
EXTT2=
PLAYORDER=
